<svg width="109" height="38" viewBox="0 0 109 38" fill="none" xmlns="http://www.w3.org/2000/svg">
<path d="M10.5905 23.7037C9.41649 24.929 7.58921 23.1145 8.76324 21.8865C9.93595 20.6612 11.7632 22.4784 10.5905 23.7037ZM37.2468 22.0375C36.7404 24.4667 35.7212 26.8104 34.1904 28.8869C35.2149 30.0948 33.7011 31.8252 32.4051 30.9486C31.0815 32.2581 29.5992 33.3084 28.0251 34.0994C28.5577 36.3389 25.4449 37.4426 24.4689 35.3942C23.2556 35.6962 22.0041 35.8659 20.7317 35.8899C20.0745 37.5134 17.7147 37.3023 17.3303 35.608C15.6316 35.29 13.9119 34.6874 12.4112 33.8883C10.9447 35.123 8.80521 33.6772 9.38763 31.8292C7.51707 30.2351 6.0151 28.2736 4.95389 26.0648C3.03085 26.4256 2.03785 23.7411 3.74445 22.7336C3.27746 20.8923 3.10037 18.9575 3.25385 16.9986C1.25997 16.3719 1.76238 13.2252 3.92547 13.3535C4.94733 9.86461 6.94907 6.93564 9.53455 4.79237C8.41037 2.55689 11.2608 0.33344 13.075 2.13465C13.1629 2.2215 13.239 2.31504 13.3111 2.41258C16.0487 1.14719 19.1222 0.60469 22.2442 0.95344C22.8253 -0.60057 25.1196 -0.14225 25.0868 1.51465C25.9119 1.74982 26.7238 2.05047 27.5122 2.41525C28.294 1.56943 29.6412 2.33909 29.388 3.42676C29.8353 3.70469 30.2761 4.01202 30.7063 4.34073C31.7282 5.11706 32.6779 6.02435 33.503 7.00513C34.3976 6.65771 35.245 7.75207 34.6665 8.55513C35.2621 9.44905 35.7671 10.3871 36.1856 11.3572C37.677 11.1327 38.4103 13.2252 37.0789 13.9962C37.4435 15.4419 37.6246 16.9278 37.6206 18.415C39.6683 18.8934 39.3469 22.0067 37.2468 22.0375ZM32.9508 8.37474C32.2713 8.46159 31.5905 8.58185 30.9162 8.72616C30.9464 9.04418 30.9097 9.36888 30.8087 9.67354C32.3369 10.2802 33.8218 11.0458 35.2358 11.9665L35.594 11.6017C35.3631 11.0699 35.1073 10.5474 34.8279 10.0423C34.618 9.66418 34.3911 9.29138 34.151 8.9306C33.6906 9.07091 33.1554 8.83707 32.9508 8.37474ZM18.9832 16.1916C20.9888 16.9278 22.9276 17.9326 24.7483 19.2074C24.8231 19.1406 24.9057 19.0844 24.9884 19.0377C24.2945 17.0895 23.3618 15.2081 22.1852 13.4497C21.8231 13.61 21.3955 13.5739 21.061 13.3361C20.2713 13.9494 19.5131 14.6148 18.7864 15.335C18.9438 15.5956 19.0094 15.8976 18.9832 16.1916ZM26.5363 8.40547C26.5717 8.2478 26.6281 8.09013 26.7002 7.94315C24.7706 6.69112 22.7099 5.73707 20.5835 5.08099C20.1204 5.71301 19.6902 6.36241 19.2927 7.0225C19.5984 7.2403 19.8345 7.55832 19.946 7.9525C22.1524 7.81621 24.3666 7.96586 26.5363 8.40547ZM26.4733 9.03483C24.3443 8.59522 22.172 8.44556 20.0089 8.58185C19.9853 8.87716 19.8909 9.16444 19.7269 9.42233C20.2975 10.0116 20.8367 10.6209 21.343 11.2503C21.7444 11.11 22.218 11.1968 22.5367 11.5255C23.8144 10.7051 25.1524 10.0089 26.5258 9.4397C26.4969 9.30875 26.4799 9.17112 26.4733 9.03483ZM16.6364 9.03483C12.6369 9.85125 8.80259 11.6792 5.52188 14.5039C5.60059 14.695 5.6465 14.8994 5.65699 15.1039C9.21973 14.4278 12.8835 14.5213 16.4265 15.4085C16.4856 15.295 16.5616 15.1881 16.6535 15.0932C17.11 14.6188 17.8236 14.548 18.3522 14.8901C19.092 14.1565 19.8647 13.4764 20.6661 12.8537C20.4891 12.4528 20.5415 11.9665 20.834 11.615C20.3539 11.0191 19.841 10.4405 19.2993 9.88065C18.3784 10.5608 17.0116 10.1225 16.6364 9.03483ZM25.58 18.8466C25.7964 18.8226 26.0129 18.8493 26.2241 18.9201C27.3443 16.4494 28.0579 13.8345 28.353 11.1835C27.6998 11.0792 27.0715 10.6383 26.7461 10.029C25.4016 10.5848 24.0977 11.2636 22.8489 12.0707C22.9302 12.4021 22.8712 12.7602 22.6705 13.0515C23.8931 14.8767 24.8625 16.8249 25.58 18.8466ZM26.7593 19.2421C26.9075 19.3784 27.0229 19.5401 27.1043 19.7098C28.2415 19.2074 29.3461 18.6194 30.4112 17.9393C30.2826 15.6424 29.8524 13.3668 29.1152 11.1701C29.0693 11.1808 29.0234 11.1875 28.9774 11.1941C28.6718 13.9561 27.9333 16.6766 26.7593 19.2421ZM27.1043 21.0727C28.071 21.9332 28.9578 22.8539 29.7671 23.8213C29.8655 23.7772 29.9704 23.7545 30.0793 23.7478C30.3679 22.0642 30.486 20.3592 30.4401 18.6622C29.4116 19.2982 28.3504 19.8541 27.2551 20.3298C27.2656 20.5837 27.2158 20.8389 27.1043 21.0727ZM31.0054 17.5505C32.0443 16.845 33.04 16.0539 33.9792 15.1734C32.8983 13.5432 31.6141 12.0106 30.1646 10.6543C30.019 10.7813 29.8655 10.8895 29.7002 10.9723C30.4138 13.1089 30.8506 15.3177 31.0054 17.5505ZM34.437 14.7351C34.7649 14.4144 35.0876 14.083 35.3998 13.7383C35.1139 13.4336 34.9499 13.0074 35.0115 12.5624C33.6381 11.6591 32.1991 10.9055 30.7129 10.3096C32.123 11.6525 33.3745 13.149 34.437 14.7351ZM28.8135 4.16969C28.9447 5.01418 29.0365 5.86 29.0863 6.70715C29.8222 6.8381 30.4965 7.39396 30.7719 8.11418C31.4724 7.96319 32.1755 7.83892 32.8826 7.7494C32.9049 7.63181 32.9508 7.51422 33.0164 7.41C31.8961 6.06444 30.5621 4.90327 29.0824 3.97594C29.0011 4.05612 28.9119 4.12293 28.8135 4.16969ZM24.8165 2.35245C26.0168 3.75547 27.0426 5.2547 27.8966 6.82875C28.0802 6.75392 28.2717 6.70715 28.4685 6.68711C28.4186 5.88004 28.3307 5.08099 28.2048 4.2806C27.5909 4.21379 27.141 3.5978 27.242 2.9818C26.51 2.64374 25.744 2.35913 24.949 2.12797C24.9097 2.20547 24.8664 2.28163 24.8165 2.35245ZM20.9888 4.54784C23.0955 5.22129 25.1353 6.17801 27.0518 7.42069L27.3614 7.1334C26.5297 5.59944 25.5301 4.1403 24.3666 2.77736C23.7986 3.11543 23.1178 2.99517 22.6639 2.59965L20.9888 4.54784ZM13.6102 2.9778C13.6561 3.10607 13.6889 3.23568 13.7125 3.3693C15.9464 3.40004 18.1817 3.72874 20.3513 4.3581L22.2796 2.09456C22.2075 1.93689 22.1655 1.76585 22.1524 1.58279C19.2429 1.27413 16.3045 1.74314 13.6102 2.9778ZM13.5315 4.73224C14.7829 5.40836 15.9923 6.19539 17.1428 7.09866C17.6032 6.6978 18.2013 6.60427 18.73 6.75392C19.1091 6.12189 19.5131 5.50189 19.9499 4.89659C17.9154 4.32737 15.8257 4.02939 13.7322 3.99866C13.7086 4.24987 13.6404 4.4984 13.5315 4.73224ZM4.54987 13.5031L5.18738 13.9694C8.54286 11.0966 12.4598 9.24194 16.538 8.41215C16.5446 8.12754 16.6167 7.84293 16.7558 7.58771C15.6211 6.6978 14.4287 5.92146 13.1891 5.26138C12.3286 6.25551 10.807 6.28625 9.90578 5.32551C7.37277 7.44741 5.45367 10.4365 4.54987 13.5031ZM16.5354 16.8877C16.3478 16.6298 16.2586 16.3225 16.2652 16.0138C12.7523 15.1373 9.11085 15.0598 5.58091 15.756C5.34742 16.5563 4.62201 17.0494 3.86906 17.0788C3.72739 18.9375 3.89268 20.7721 4.32949 22.5185C6.23154 22.1845 7.21143 24.8221 5.535 25.8403C6.53456 27.9061 7.93814 29.7461 9.67622 31.2533C9.93857 30.8885 10.3308 30.6133 10.8135 30.513C11.3592 25.6359 13.2652 20.8817 16.5354 16.8877ZM12.9819 31.7557C17.758 29.7942 22.0304 26.1543 24.7969 21.6152C24.2223 21.1569 24.0583 20.3458 24.3666 19.7071C22.6023 18.4751 20.7252 17.5037 18.7825 16.7915C18.4112 17.4035 17.6163 17.6146 17.005 17.2966C13.8371 21.1663 11.9836 25.7668 11.434 30.4903C12.1213 30.5772 12.7497 31.0863 12.9819 31.7557ZM25.8332 21.9399C25.6718 21.9493 25.5105 21.9359 25.3557 21.8932C22.4974 26.61 18.0597 30.3767 13.0947 32.3877C13.0973 32.7659 12.9989 33.108 12.8244 33.3952C14.1952 34.1128 15.7536 34.658 17.2949 34.9586C17.5809 32.6857 20.939 32.9636 20.8603 35.2566C22.0264 35.2232 23.1768 35.0668 24.2945 34.7916C24.1856 33.7841 24.8834 32.7498 25.9906 32.6363C26.6832 29.1007 26.6281 25.4515 25.8332 21.9399ZM26.7265 32.7098C28.0736 30.4997 29.0535 28.1266 29.6714 25.6786C29.165 25.4007 28.9945 24.7179 29.2936 24.2302C28.5105 23.2922 27.6565 22.4049 26.7238 21.5751C26.6307 21.6553 26.5323 21.7221 26.4274 21.7796C27.242 25.3579 27.3076 29.0806 26.615 32.683C26.6504 32.6857 26.6897 32.6964 26.7265 32.7098ZM32.2909 28.7252C31.7544 27.7017 31.1471 26.7035 30.4663 25.7495C30.4046 25.7695 30.3417 25.7869 30.2787 25.7935C29.6543 28.2976 28.6561 30.7282 27.2853 32.9904L27.7654 33.5061C29.3093 32.7258 30.73 31.7049 31.9722 30.477C31.6561 29.9077 31.7741 29.1581 32.2909 28.7252ZM36.6119 21.9292C35.3828 21.4816 35.0115 19.7806 36.0045 18.8533C35.5284 17.7816 34.9656 16.7274 34.3255 15.7092C33.2892 16.6672 32.1926 17.5238 31.0448 18.2801C31.1235 20.1561 31.0028 22.0401 30.6801 23.9015C31.176 24.2128 31.3084 24.909 30.9661 25.3807C31.6666 26.3654 32.2936 27.3903 32.8432 28.4473C33.116 28.3804 33.4046 28.4045 33.667 28.5114C35.0509 26.6327 36.1029 24.3237 36.6119 21.9292ZM36.987 18.3843C36.987 16.9479 36.81 15.5395 36.4676 14.1792C36.2774 14.1899 36.0898 14.1592 35.9219 14.0924C35.5546 14.5013 35.1729 14.8928 34.7846 15.2709C35.4484 16.3185 36.0334 17.4035 36.5306 18.5112C36.6775 18.4484 36.8323 18.4043 36.987 18.3843ZM33.8716 23.1519C33.0203 22.91 32.6622 24.2329 33.5135 24.4734C34.3609 24.7152 34.723 23.3924 33.8716 23.1519ZM21.0439 22.3555C22.1419 22.5319 22.4082 20.8282 21.3102 20.6505C20.2123 20.4741 19.946 22.1778 21.0439 22.3555ZM21.1948 29.5389C19.8056 29.1474 19.2166 31.3067 20.6097 31.6983C22.0002 32.0898 22.5852 29.9305 21.1948 29.5389ZM14.6688 11.1701C13.4987 10.8387 13.0015 12.66 14.1756 12.9913C15.3456 13.3187 15.8389 11.4988 14.6688 11.1701Z" fill="#0F3DD1"/>
<path d="M51.3086 15.2565L50.7324 13.7588H47.4474L46.8831 15.2565H45L48.2256 7.35817H49.9067L53.2392 15.2565H51.3086ZM49.081 9.44807L48.0117 12.2669H50.1621L49.081 9.44807Z" fill="#0F3DD1"/>
<path d="M56.8214 13.7475H59.2154V15.2566H53.7266V14.9092C54.3711 14.1917 54.9116 13.5866 55.3483 13.0926C55.7834 12.5958 56.1339 12.1815 56.3997 11.8512C56.664 11.5209 56.869 11.2462 57.0115 11.0255C57.1541 10.802 57.2491 10.6098 57.2967 10.4504C57.3442 10.2881 57.368 10.13 57.368 9.97772C57.368 9.71577 57.2848 9.50507 57.1185 9.34562C56.9521 9.18618 56.7353 9.10645 56.471 9.10645C56.1977 9.10645 55.975 9.18902 55.8057 9.35132C55.6349 9.51504 55.5502 9.73143 55.5502 10.0005V10.1372H53.8691V9.97772C53.8691 9.51931 53.9731 9.11072 54.184 8.75339C54.3978 8.39748 54.6963 8.1156 55.0809 7.9106C55.4641 7.70275 55.92 7.5974 56.4472 7.5974C56.9581 7.5974 57.4095 7.6999 57.8016 7.9049C58.1937 8.10706 58.4996 8.38325 58.7223 8.73631C58.9481 9.08937 59.0609 9.49653 59.0609 9.95494C59.0609 10.187 59.0283 10.4205 58.9659 10.6554C58.902 10.8874 58.7892 11.148 58.6273 11.4355C58.4684 11.7203 58.2412 12.0491 57.9442 12.4207C57.6501 12.7937 57.2759 13.235 56.8214 13.7475Z" fill="#0F3DD1"/>
<path d="M66.2031 15.2565L65.6269 13.7588H62.3419L61.7776 15.2565H59.8945L63.1201 7.35817H64.8012L68.1337 15.2565H66.2031ZM63.9755 9.44807L62.9063 12.2669H65.0566L63.9755 9.44807Z" fill="#0F3DD1"/>
<path d="M74.4326 11.128H78.8225C78.8136 11.7516 78.7066 12.3239 78.5017 12.8478C78.2997 13.3717 78.0101 13.8258 77.6344 14.2088C77.2617 14.5932 76.8176 14.8921 76.3038 15.1085C75.7929 15.3207 75.2256 15.4274 74.6049 15.4274C74.0019 15.4274 73.4421 15.3263 72.9238 15.1256C72.404 14.9206 71.9511 14.6345 71.5635 14.2657C71.1744 13.8984 70.8744 13.4614 70.6605 12.956C70.4497 12.452 70.3457 11.9068 70.3457 11.3217C70.3457 10.7266 70.4482 10.1799 70.6546 9.68162C70.864 9.1805 71.1595 8.74487 71.5397 8.37187C71.9199 8.0003 72.3684 7.7113 72.8881 7.5063C73.4064 7.29845 73.9663 7.1931 74.5692 7.1931C75.2539 7.1931 75.885 7.32123 76.4642 7.57464C77.0463 7.82947 77.5334 8.18253 77.9255 8.63382C78.3176 9.08654 78.576 9.61044 78.7037 10.2055H76.8681C76.6929 9.777 76.4018 9.4396 75.9949 9.19189C75.5865 8.94133 75.1232 8.81605 74.6049 8.81605C74.1208 8.81605 73.6931 8.92424 73.3218 9.14064C72.9535 9.35418 72.6639 9.64603 72.4545 10.0176C72.2481 10.3906 72.1456 10.8248 72.1456 11.3217C72.1456 11.8085 72.2466 12.2385 72.4486 12.6143C72.6535 12.9873 72.9416 13.2777 73.3099 13.4856C73.6812 13.6949 74.1133 13.7988 74.6049 13.7988C75.1395 13.7988 75.6177 13.6763 76.0424 13.4286C76.4657 13.1823 76.7523 12.8563 76.9038 12.4492H74.4326V11.128Z" fill="#0F3DD1"/>
<path d="M80.0801 15.2566V6.9653H81.7968V15.2566H80.0801Z" fill="#0F3DD1"/>
<path d="M86.4677 15.4274C85.8054 15.4274 85.2158 15.2865 84.6975 15.006C84.1822 14.7213 83.7738 14.3383 83.4738 13.8557C83.1768 13.3702 83.0283 12.8221 83.0283 12.21C83.0283 11.595 83.1768 11.0454 83.4738 10.5586C83.7738 10.0731 84.1822 9.69156 84.6975 9.41395C85.2158 9.13776 85.8054 8.99825 86.4677 8.99825C87.1167 8.99825 87.7004 9.13776 88.2201 9.41395C88.7384 9.69156 89.1468 10.0731 89.4438 10.5586C89.7408 11.0454 89.8893 11.595 89.8893 12.21C89.8893 12.8221 89.7408 13.3702 89.4438 13.8557C89.1468 14.3383 88.7384 14.7213 88.2201 15.006C87.7004 15.2865 87.1167 15.4274 86.4677 15.4274ZM86.4677 13.8785C86.9623 13.8785 87.3662 13.7247 87.6796 13.4172C87.9914 13.1097 88.1488 12.7082 88.1488 12.21C88.1488 11.7131 87.9914 11.3102 87.6796 11.0027C87.3662 10.6952 86.9623 10.5415 86.4677 10.5415C85.9643 10.5415 85.5559 10.6952 85.244 11.0027C84.9307 11.3102 84.7748 11.7131 84.7748 12.21C84.7748 12.7082 84.9307 13.1097 85.244 13.4172C85.5559 13.7247 85.9643 13.8785 86.4677 13.8785Z" fill="#0F3DD1"/>
<path d="M94.5852 8.99826C95.2386 8.99826 95.8148 9.13777 96.3138 9.41396C96.8157 9.69157 97.2108 10.0731 97.4959 10.5586C97.784 11.0454 97.9295 11.595 97.9295 12.21C97.9295 12.8293 97.784 13.3816 97.4959 13.8671C97.2108 14.3497 96.8157 14.7312 96.3138 15.0117C95.8148 15.2879 95.2386 15.4274 94.5852 15.4274C94.2005 15.4274 93.8397 15.3676 93.504 15.2509C93.1669 15.1341 92.864 14.9662 92.5952 14.7498L92.3991 15.2566H91.1279V6.9653H92.8447V9.49368C93.0853 9.33424 93.3526 9.21323 93.6466 9.12923C93.9436 9.04239 94.2555 8.99826 94.5852 8.99826ZM94.4426 13.8671C94.7782 13.8671 95.0752 13.7973 95.3336 13.6564C95.595 13.5126 95.8 13.3147 95.9514 13.0642C96.1014 12.8108 96.1772 12.526 96.1772 12.21C96.1772 11.8954 96.1014 11.6121 95.9514 11.3615C95.8 11.1081 95.595 10.9088 95.3336 10.7636C95.0752 10.6155 94.7782 10.5415 94.4426 10.5415C94.1129 10.5415 93.8159 10.6155 93.5516 10.7636C93.2902 10.9088 93.0838 11.1081 92.9338 11.3615C92.7868 11.6121 92.714 11.8954 92.714 12.21C92.714 12.526 92.7868 12.8079 92.9338 13.0585C93.0838 13.3062 93.2902 13.5026 93.5516 13.6507C93.8159 13.7959 94.1129 13.8671 94.4426 13.8671Z" fill="#0F3DD1"/>
<path d="M104.351 9.152H105.634V15.2452H104.279L104.143 14.7042C103.865 14.9291 103.552 15.1057 103.204 15.2338C102.855 15.3619 102.481 15.4274 102.082 15.4274C101.443 15.4274 100.873 15.2865 100.371 15.006C99.8717 14.7213 99.4752 14.3383 99.1827 13.8557C98.8931 13.3702 98.749 12.8179 98.749 12.1986C98.749 11.5921 98.8931 11.0454 99.1827 10.5586C99.4752 10.0731 99.8717 9.69156 100.371 9.41395C100.873 9.13776 101.443 8.99825 102.082 8.99825C102.488 8.99825 102.869 9.06516 103.222 9.19755C103.574 9.32711 103.889 9.50791 104.167 9.73854L104.351 9.152ZM102.224 13.8671C102.552 13.8671 102.848 13.7973 103.109 13.6564C103.374 13.5126 103.58 13.3147 103.727 13.0642C103.877 12.8107 103.953 12.5218 103.953 12.1986C103.953 11.884 103.877 11.6007 103.727 11.3501C103.58 11.0967 103.374 10.8974 103.109 10.7522C102.848 10.6041 102.552 10.5301 102.224 10.5301C101.887 10.5301 101.588 10.6041 101.327 10.7522C101.069 10.8974 100.865 11.0967 100.715 11.3501C100.568 11.6007 100.495 11.884 100.495 12.1986C100.495 12.5218 100.568 12.8079 100.715 13.0585C100.865 13.3062 101.069 13.5026 101.327 13.6507C101.588 13.7959 101.887 13.8671 102.224 13.8671Z" fill="#0F3DD1"/>
<path d="M107.283 15.2566V6.9653H109V15.2566H107.283Z" fill="#0F3DD1"/>
<path d="M45 24.6483V20.2986H45.8632V24.6483H45Z" fill="#0F3DD1"/>
<path d="M48.7561 21.214C49.1044 21.214 49.3812 21.3422 49.5836 21.597C49.786 21.8486 49.8872 22.1878 49.8872 22.6163V24.6483H49.0538V22.7591C49.0538 22.2576 48.8767 22.006 48.524 22.006C48.3097 22.006 48.14 22.0872 48.018 22.2462C47.8944 22.402 47.8334 22.6147 47.8334 22.8825V24.6483H47V21.2919H47.5715L47.7322 21.7074C47.8468 21.5564 47.9941 21.438 48.1727 21.3503C48.3513 21.2594 48.5448 21.214 48.7561 21.214Z" fill="#0F3DD1"/>
<path d="M52.293 23.8433H52.668V24.6484H52.0787C51.7408 24.6484 51.4729 24.5429 51.275 24.3302C51.0801 24.1144 50.9833 23.8206 50.9833 23.4473V22.0191H50.4297V21.8308L51.6441 20.4155H51.7989V21.2919H52.6501V22.0191H51.8167V23.3305C51.8167 23.4911 51.8554 23.6161 51.9358 23.707C52.0191 23.7979 52.1382 23.8433 52.293 23.8433Z" fill="#0F3DD1"/>
<path d="M56.218 22.9604C56.218 23.048 56.2136 23.1357 56.2061 23.2266H53.8785C53.9142 23.4522 53.9976 23.6274 54.1286 23.7524C54.2625 23.8742 54.4292 23.9342 54.6286 23.9342C54.7745 23.9342 54.9039 23.9001 55.0155 23.8303C55.1301 23.7622 55.2194 23.668 55.2834 23.5512H56.1585C56.0424 23.9147 55.849 24.2052 55.5751 24.4211C55.3013 24.6337 54.9858 24.7392 54.6286 24.7392C54.3265 24.7392 54.0541 24.6629 53.813 24.512C53.5705 24.3562 53.38 24.1452 53.2416 23.8758C53.1017 23.608 53.0332 23.3077 53.0332 22.9734C53.0332 22.6358 53.1017 22.3355 53.2416 22.071C53.38 21.8032 53.5705 21.5905 53.813 21.4347C54.0541 21.2789 54.3265 21.201 54.6286 21.201C54.9456 21.201 55.2239 21.2822 55.462 21.4412C55.7001 21.6019 55.8847 21.8145 56.0156 22.0775C56.1496 22.342 56.218 22.6358 56.218 22.9604ZM54.6286 21.9736C54.4455 21.9736 54.2893 22.0304 54.1583 22.1424C54.0303 22.2511 53.9455 22.4053 53.9023 22.6033H55.3906C55.2671 22.1846 55.0126 21.9736 54.6286 21.9736Z" fill="#0F3DD1"/>
<path d="M58.3851 21.2724H58.6589V22.1294H58.3017C58.0636 22.1294 57.8939 22.1911 57.7957 22.3112C57.696 22.4329 57.6469 22.6293 57.6469 22.902V24.6483H56.8135V21.2919H57.3492L57.4981 21.7009C57.7034 21.4153 57.9996 21.2724 58.3851 21.2724Z" fill="#0F3DD1"/>
<path d="M60.8889 21.214C61.2372 21.214 61.514 21.3422 61.7164 21.597C61.9188 21.8486 62.02 22.1878 62.02 22.6163V24.6483H61.1866V22.7591C61.1866 22.2576 61.0095 22.006 60.6568 22.006C60.4425 22.006 60.2728 22.0872 60.1508 22.2462C60.0272 22.402 59.9662 22.6147 59.9662 22.8825V24.6483H59.1328V21.2919H59.7043L59.865 21.7074C59.9796 21.5564 60.127 21.438 60.3055 21.3503C60.4841 21.2594 60.6776 21.214 60.8889 21.214Z" fill="#0F3DD1"/>
<path d="M65.2966 21.2854H65.9157V24.6418H65.2609L65.1954 24.3432C65.06 24.4698 64.9067 24.5672 64.737 24.6354C64.5703 24.7035 64.3888 24.7392 64.1953 24.7392C63.8887 24.7392 63.6134 24.6629 63.3678 24.512C63.1252 24.3562 62.9333 24.1452 62.7904 23.8758C62.6505 23.608 62.582 23.3045 62.582 22.9669C62.582 22.6293 62.6505 22.329 62.7904 22.0645C62.9333 21.7967 63.1252 21.5873 63.3678 21.4347C63.6134 21.2789 63.8887 21.201 64.1953 21.201C64.3932 21.201 64.5778 21.2383 64.7489 21.3114C64.9186 21.3812 65.0719 21.4802 65.2073 21.61L65.2966 21.2854ZM64.2667 23.8823C64.4245 23.8823 64.5673 23.8433 64.6953 23.7654C64.8218 23.6875 64.9216 23.5804 64.993 23.4408C65.0644 23.3028 65.1001 23.1454 65.1001 22.9669C65.1001 22.79 65.0644 22.6325 64.993 22.493C64.9216 22.355 64.8218 22.2463 64.6953 22.1683C64.5673 22.0872 64.4245 22.045 64.2667 22.045C64.103 22.045 63.9587 22.0872 63.8322 22.1683C63.7042 22.2463 63.6059 22.355 63.5345 22.493C63.4631 22.6325 63.4274 22.79 63.4274 22.9669C63.4274 23.1454 63.4631 23.3028 63.5345 23.4408C63.6059 23.5755 63.7042 23.6843 63.8322 23.7654C63.9587 23.8433 64.103 23.8823 64.2667 23.8823Z" fill="#0F3DD1"/>
<path d="M68.2217 23.8433H68.5967V24.6484H68.0074C67.6695 24.6484 67.4017 24.5429 67.2037 24.3302C67.0088 24.1144 66.912 23.8206 66.912 23.4473V22.0191H66.3584V21.8308L67.5728 20.4155H67.7276V21.2919H68.5789V22.0191H67.7454V23.3305C67.7454 23.4911 67.7841 23.6161 67.8645 23.707C67.9478 23.7979 68.0669 23.8433 68.2217 23.8433Z" fill="#0F3DD1"/>
<path d="M69.166 20.844V20H69.9994V20.844H69.166ZM69.166 24.6484V21.2919H69.9994V24.6484H69.166Z" fill="#0F3DD1"/>
<path d="M72.2596 24.7392C71.9411 24.7392 71.6554 24.6629 71.4024 24.512C71.1524 24.3562 70.9529 24.1452 70.8071 23.8758C70.6642 23.608 70.5928 23.3077 70.5928 22.9734C70.5928 22.6325 70.6642 22.329 70.8071 22.0645C70.9529 21.7967 71.1524 21.5873 71.4024 21.4347C71.6554 21.2789 71.9411 21.201 72.2596 21.201C72.5721 21.201 72.8549 21.2789 73.1049 21.4347C73.3579 21.5873 73.5574 21.7967 73.7002 22.0645C73.8431 22.329 73.9145 22.6325 73.9145 22.9734C73.9145 23.3077 73.8431 23.608 73.7002 23.8758C73.5574 24.1452 73.3579 24.3562 73.1049 24.512C72.8549 24.6629 72.5721 24.7392 72.2596 24.7392ZM72.2596 23.8888C72.4977 23.8888 72.6912 23.8044 72.843 23.6356C72.9978 23.4668 73.0752 23.246 73.0752 22.9734C73.0752 22.6975 72.9978 22.4735 72.843 22.3047C72.6912 22.1359 72.4977 22.0515 72.2596 22.0515C72.017 22.0515 71.8191 22.1359 71.6643 22.3047C71.5125 22.4735 71.4381 22.6975 71.4381 22.9734C71.4381 23.246 71.5125 23.4668 71.6643 23.6356C71.8191 23.8044 72.017 23.8888 72.2596 23.8888Z" fill="#0F3DD1"/>
<path d="M76.2698 21.214C76.6181 21.214 76.8949 21.3422 77.0973 21.597C77.2997 21.8486 77.4009 22.1878 77.4009 22.6163V24.6483H76.5674V22.7591C76.5674 22.2576 76.3903 22.006 76.0376 22.006C75.8233 22.006 75.6537 22.0872 75.5316 22.2462C75.4081 22.402 75.3471 22.6147 75.3471 22.8825V24.6483H74.5137V21.2919H75.0852L75.2459 21.7074C75.3605 21.5564 75.5078 21.438 75.6864 21.3503C75.865 21.2594 76.0585 21.214 76.2698 21.214Z" fill="#0F3DD1"/>
<path d="M80.6794 21.2854H81.2985V24.6418H80.6437L80.5782 24.3432C80.4428 24.4698 80.2895 24.5672 80.1198 24.6354C79.9531 24.7035 79.7716 24.7392 79.5781 24.7392C79.2715 24.7392 78.9962 24.6629 78.7506 24.512C78.5081 24.3562 78.3161 24.1452 78.1732 23.8758C78.0333 23.608 77.9648 23.3045 77.9648 22.9669C77.9648 22.6293 78.0333 22.329 78.1732 22.0645C78.3161 21.7967 78.5081 21.5873 78.7506 21.4347C78.9962 21.2789 79.2715 21.201 79.5781 21.201C79.776 21.201 79.9606 21.2383 80.1317 21.3114C80.3014 21.3812 80.4547 21.4802 80.5901 21.61L80.6794 21.2854ZM79.6495 23.8823C79.8073 23.8823 79.9502 23.8433 80.0782 23.7654C80.2047 23.6875 80.3044 23.5804 80.3758 23.4408C80.4472 23.3028 80.483 23.1454 80.483 22.9669C80.483 22.79 80.4472 22.6325 80.3758 22.493C80.3044 22.355 80.2047 22.2463 80.0782 22.1683C79.9502 22.0872 79.8073 22.045 79.6495 22.045C79.4858 22.045 79.3415 22.0872 79.215 22.1683C79.087 22.2463 78.9888 22.355 78.9173 22.493C78.8459 22.6325 78.8102 22.79 78.8102 22.9669C78.8102 23.1454 78.8459 23.3028 78.9173 23.4408C78.9888 23.5755 79.087 23.6843 79.215 23.7654C79.3415 23.8433 79.4858 23.8823 79.6495 23.8823Z" fill="#0F3DD1"/>
<path d="M82.0977 24.6483V20.0843H82.9311V24.6483H82.0977Z" fill="#0F3DD1"/>
<path d="M87.6003 21.2854H88.2194V24.6418H87.5646L87.4991 24.3432C87.3637 24.4698 87.2104 24.5672 87.0407 24.6354C86.874 24.7035 86.6925 24.7392 86.499 24.7392C86.1924 24.7392 85.9171 24.6629 85.6715 24.512C85.429 24.3562 85.237 24.1452 85.0941 23.8758C84.9542 23.608 84.8857 23.3045 84.8857 22.9669C84.8857 22.6293 84.9542 22.329 85.0941 22.0645C85.237 21.7967 85.429 21.5873 85.6715 21.4347C85.9171 21.2789 86.1924 21.201 86.499 21.201C86.6969 21.201 86.8815 21.2383 87.0526 21.3114C87.2223 21.3812 87.3756 21.4802 87.511 21.61L87.6003 21.2854ZM86.5704 23.8823C86.7282 23.8823 86.8711 23.8433 86.9991 23.7654C87.1256 23.6875 87.2253 23.5804 87.2967 23.4408C87.3681 23.3028 87.4039 23.1454 87.4039 22.9669C87.4039 22.79 87.3681 22.6325 87.2967 22.493C87.2253 22.355 87.1256 22.2463 86.9991 22.1683C86.8711 22.0872 86.7282 22.045 86.5704 22.045C86.4067 22.045 86.2624 22.0872 86.1359 22.1683C86.0079 22.2463 85.9097 22.355 85.8382 22.493C85.7668 22.6325 85.7311 22.79 85.7311 22.9669C85.7311 23.1454 85.7668 23.3028 85.8382 23.4408C85.9097 23.5755 86.0079 23.6843 86.1359 23.7654C86.2624 23.8433 86.4067 23.8823 86.5704 23.8823Z" fill="#0F3DD1"/>
<path d="M90.4495 24.7392C90.1429 24.7392 89.8661 24.6613 89.6161 24.5055C89.369 24.3497 89.1755 24.1387 89.0327 23.8693C88.8898 23.5966 88.8184 23.2947 88.8184 22.9604C88.8184 22.6228 88.8898 22.3225 89.0327 22.058C89.1755 21.795 89.369 21.5873 89.6161 21.4347C89.8661 21.2789 90.1459 21.201 90.4554 21.201C90.7203 21.201 90.9629 21.2578 91.1817 21.3698C91.399 21.4834 91.582 21.6425 91.7294 21.8502C91.8752 22.058 91.9734 22.2982 92.0211 22.5709H91.1996C91.1281 22.4069 91.0269 22.2787 90.8959 22.1878C90.765 22.0969 90.6162 22.0515 90.4495 22.0515C90.3021 22.0515 90.1697 22.0937 90.0506 22.1748C89.9316 22.2527 89.8363 22.3615 89.7649 22.4994C89.6964 22.6342 89.6637 22.79 89.6637 22.9669C89.6637 23.1405 89.6964 23.2964 89.7649 23.4343C89.8363 23.5739 89.9316 23.6843 90.0506 23.7654C90.1697 23.8482 90.3021 23.8888 90.4495 23.8888C90.6191 23.8888 90.768 23.8417 90.8959 23.7459C91.0224 23.6469 91.1237 23.5057 91.1996 23.3239H92.033C91.9853 23.6064 91.8856 23.8547 91.7353 24.0705C91.588 24.2832 91.4034 24.4471 91.1817 24.5639C90.9629 24.6808 90.7188 24.7392 90.4495 24.7392Z" fill="#0F3DD1"/>
<path d="M94.009 24.7392C93.7025 24.7392 93.4257 24.6613 93.1756 24.5055C92.9286 24.3497 92.7351 24.1387 92.5922 23.8693C92.4494 23.5966 92.3779 23.2947 92.3779 22.9604C92.3779 22.6228 92.4494 22.3225 92.5922 22.058C92.7351 21.795 92.9286 21.5873 93.1756 21.4347C93.4257 21.2789 93.7054 21.201 94.015 21.201C94.2799 21.201 94.5225 21.2578 94.7413 21.3698C94.9585 21.4834 95.1416 21.6425 95.2889 21.8502C95.4348 22.058 95.533 22.2982 95.5806 22.5709H94.7591C94.6877 22.4069 94.5865 22.2787 94.4555 22.1878C94.3246 22.0969 94.1757 22.0515 94.009 22.0515C93.8617 22.0515 93.7293 22.0937 93.6102 22.1748C93.4911 22.2527 93.3959 22.3615 93.3245 22.4994C93.256 22.6342 93.2233 22.79 93.2233 22.9669C93.2233 23.1405 93.256 23.2964 93.3245 23.4343C93.3959 23.5739 93.4911 23.6843 93.6102 23.7654C93.7293 23.8482 93.8617 23.8888 94.009 23.8888C94.1787 23.8888 94.3275 23.8417 94.4555 23.7459C94.582 23.6469 94.6832 23.5057 94.7591 23.3239H95.5925C95.5449 23.6064 95.4452 23.8547 95.2949 24.0705C95.1476 24.2832 94.963 24.4471 94.7413 24.5639C94.5225 24.6808 94.2784 24.7392 94.009 24.7392Z" fill="#0F3DD1"/>
<path d="M97.6063 24.7392C97.2878 24.7392 97.0021 24.6629 96.7491 24.512C96.499 24.3562 96.2996 24.1452 96.1538 23.8758C96.0109 23.608 95.9395 23.3077 95.9395 22.9734C95.9395 22.6325 96.0109 22.329 96.1538 22.0645C96.2996 21.7967 96.499 21.5873 96.7491 21.4347C97.0021 21.2789 97.2878 21.201 97.6063 21.201C97.9188 21.201 98.2016 21.2789 98.4516 21.4347C98.7046 21.5873 98.904 21.7967 99.0469 22.0645C99.1898 22.329 99.2612 22.6325 99.2612 22.9734C99.2612 23.3077 99.1898 23.608 99.0469 23.8758C98.904 24.1452 98.7046 24.3562 98.4516 24.512C98.2016 24.6629 97.9188 24.7392 97.6063 24.7392ZM97.6063 23.8888C97.8444 23.8888 98.0379 23.8044 98.1897 23.6356C98.3445 23.4668 98.4218 23.246 98.4218 22.9734C98.4218 22.6975 98.3445 22.4735 98.1897 22.3047C98.0379 22.1359 97.8444 22.0515 97.6063 22.0515C97.3637 22.0515 97.1658 22.1359 97.011 22.3047C96.8592 22.4735 96.7848 22.6975 96.7848 22.9734C96.7848 23.246 96.8592 23.4668 97.011 23.6356C97.1658 23.8044 97.3637 23.8888 97.6063 23.8888Z" fill="#0F3DD1"/>
<path d="M101.266 24.7392C100.98 24.7392 100.727 24.6759 100.51 24.5509C100.291 24.4259 100.12 24.2507 99.9979 24.0251C99.8789 23.8011 99.8193 23.5365 99.8193 23.233V21.2919H100.653V23.1291C100.653 23.3677 100.706 23.5544 100.813 23.6875C100.924 23.8222 101.075 23.8887 101.266 23.8887C101.459 23.8887 101.611 23.8222 101.718 23.6875C101.825 23.5495 101.879 23.3629 101.879 23.1291V21.2919H102.707V23.233C102.707 23.5365 102.647 23.8011 102.528 24.0251C102.409 24.2507 102.239 24.4259 102.022 24.5509C101.808 24.6759 101.555 24.7392 101.266 24.7392Z" fill="#0F3DD1"/>
<path d="M105.223 21.214C105.571 21.214 105.848 21.3422 106.05 21.597C106.253 21.8486 106.354 22.1878 106.354 22.6163V24.6483H105.521V22.7591C105.521 22.2576 105.343 22.006 104.991 22.006C104.776 22.006 104.607 22.0872 104.485 22.2462C104.361 22.402 104.3 22.6147 104.3 22.8825V24.6483H103.467V21.2919H104.038L104.199 21.7074C104.314 21.5564 104.461 21.438 104.64 21.3503C104.818 21.2594 105.012 21.214 105.223 21.214Z" fill="#0F3DD1"/>
<path d="M108.625 23.8433H109V24.6484H108.411C108.073 24.6484 107.805 24.5429 107.607 24.3302C107.412 24.1144 107.315 23.8206 107.315 23.4473V22.0191H106.762V21.8308L107.976 20.4155H108.131V21.2919H108.982V22.0191H108.149V23.3305C108.149 23.4911 108.187 23.6161 108.268 23.707C108.351 23.7979 108.47 23.8433 108.625 23.8433Z" fill="#0F3DD1"/>
<path d="M46.8633 30.0757H47.2383V30.8807H46.649C46.3111 30.8807 46.0433 30.7752 45.8453 30.5626C45.6504 30.3467 45.5536 30.053 45.5536 29.6797V28.2514H45V28.0631L46.2144 26.6479H46.3692V27.5243H47.2205V28.2514H46.387V29.5628C46.387 29.7235 46.4257 29.8485 46.5061 29.9394C46.5894 30.0303 46.7085 30.0757 46.8633 30.0757Z" fill="#0F3DD1"/>
<path d="M49.2713 30.9717C48.9528 30.9717 48.6671 30.8955 48.4141 30.7445C48.1641 30.5887 47.9646 30.3777 47.8188 30.1083C47.6759 29.8405 47.6045 29.5402 47.6045 29.2059C47.6045 28.865 47.6759 28.5615 47.8188 28.297C47.9646 28.0292 48.1641 27.8198 48.4141 27.6672C48.6671 27.5114 48.9528 27.4335 49.2713 27.4335C49.5839 27.4335 49.8666 27.5114 50.1166 27.6672C50.3697 27.8198 50.5691 28.0292 50.7119 28.297C50.8548 28.5615 50.9263 28.865 50.9263 29.2059C50.9263 29.5402 50.8548 29.8405 50.7119 30.1083C50.5691 30.3777 50.3697 30.5887 50.1166 30.7445C49.8666 30.8955 49.5839 30.9717 49.2713 30.9717ZM49.2713 30.1213C49.5094 30.1213 49.7029 30.0369 49.8547 29.8681C50.0095 29.6993 50.0869 29.4786 50.0869 29.2059C50.0869 28.93 50.0095 28.706 49.8547 28.5372C49.7029 28.3684 49.5094 28.284 49.2713 28.284C49.0287 28.284 48.8308 28.3684 48.676 28.5372C48.5242 28.706 48.4498 28.93 48.4498 29.2059C48.4498 29.4786 48.5242 29.6993 48.676 29.8681C48.8308 30.0369 49.0287 30.1213 49.2713 30.1213Z" fill="#0F3DD1"/>
<path d="M55.4011 27.5179H56.0202V30.8743H55.3654L55.2999 30.5757C55.1645 30.7023 55.0112 30.7997 54.8415 30.8678C54.6748 30.936 54.4933 30.9717 54.2998 30.9717C53.9932 30.9717 53.7179 30.8954 53.4723 30.7445C53.2297 30.5887 53.0377 30.3777 52.8949 30.1083C52.755 29.8405 52.6865 29.5369 52.6865 29.1994C52.6865 28.8618 52.755 28.5615 52.8949 28.297C53.0377 28.0292 53.2297 27.8198 53.4723 27.6672C53.7179 27.5114 53.9932 27.4335 54.2998 27.4335C54.4977 27.4335 54.6823 27.4708 54.8534 27.5439C55.0231 27.6137 55.1764 27.7127 55.3118 27.8425L55.4011 27.5179ZM54.3712 30.1147C54.529 30.1147 54.6718 30.0758 54.7998 29.9979C54.9263 29.92 55.026 29.8129 55.0975 29.6733C55.1689 29.5353 55.2046 29.3779 55.2046 29.1994C55.2046 29.0224 55.1689 28.865 55.0975 28.7254C55.026 28.5875 54.9263 28.4787 54.7998 28.4008C54.6718 28.3197 54.529 28.2775 54.3712 28.2775C54.2075 28.2775 54.0631 28.3197 53.9366 28.4008C53.8087 28.4787 53.7104 28.5875 53.639 28.7254C53.5676 28.865 53.5318 29.0224 53.5318 29.1994C53.5318 29.3779 53.5676 29.5353 53.639 29.6733C53.7104 29.808 53.8087 29.9167 53.9366 29.9979C54.0631 30.0758 54.2075 30.1147 54.3712 30.1147Z" fill="#0F3DD1"/>
<path d="M58.2483 30.9717C57.9417 30.9717 57.6649 30.8938 57.4149 30.738C57.1678 30.5822 56.9744 30.3712 56.8315 30.1018C56.6886 29.8291 56.6172 29.5272 56.6172 29.1929C56.6172 28.8553 56.6886 28.555 56.8315 28.2905C56.9744 28.0276 57.1678 27.8198 57.4149 27.6672C57.6649 27.5114 57.9447 27.4335 58.2543 27.4335C58.5192 27.4335 58.7617 27.4903 58.9805 27.6023C59.1978 27.7159 59.3809 27.875 59.5282 28.0827C59.674 28.2905 59.7723 28.5307 59.8199 28.8034H58.9984C58.9269 28.6394 58.8257 28.5112 58.6948 28.4203C58.5638 28.3294 58.415 28.284 58.2483 28.284C58.101 28.284 57.9685 28.3262 57.8495 28.4074C57.7304 28.4853 57.6351 28.594 57.5637 28.732C57.4953 28.8667 57.4625 29.0225 57.4625 29.1994C57.4625 29.3731 57.4953 29.5289 57.5637 29.6668C57.6351 29.8064 57.7304 29.9168 57.8495 29.9979C57.9685 30.0807 58.101 30.1213 58.2483 30.1213C58.418 30.1213 58.5668 30.0742 58.6948 29.9784C58.8213 29.8794 58.9225 29.7382 58.9984 29.5565H59.8318C59.7842 29.8389 59.6845 30.0872 59.5341 30.3031C59.3868 30.5157 59.2023 30.6796 58.9805 30.7965C58.7617 30.9133 58.5177 30.9717 58.2483 30.9717Z" fill="#0F3DD1"/>
<path d="M61.8098 30.9717C61.5032 30.9717 61.2264 30.8938 60.9764 30.738C60.7294 30.5822 60.5359 30.3712 60.393 30.1018C60.2501 29.8291 60.1787 29.5272 60.1787 29.1929C60.1787 28.8553 60.2501 28.555 60.393 28.2905C60.5359 28.0275 60.7294 27.8198 60.9764 27.6672C61.2264 27.5114 61.5062 27.4335 61.8158 27.4335C62.0807 27.4335 62.3233 27.4903 62.542 27.6023C62.7593 27.7159 62.9424 27.875 63.0897 28.0827C63.2356 28.2905 63.3338 28.5307 63.3814 28.8033H62.5599C62.4885 28.6394 62.3873 28.5112 62.2563 28.4203C62.1253 28.3294 61.9765 28.284 61.8098 28.284C61.6625 28.284 61.53 28.3262 61.411 28.4073C61.2919 28.4852 61.1967 28.594 61.1252 28.7319C61.0568 28.8666 61.024 29.0224 61.024 29.1994C61.024 29.373 61.0568 29.5288 61.1252 29.6668C61.1967 29.8064 61.2919 29.9167 61.411 29.9979C61.53 30.0807 61.6625 30.1212 61.8098 30.1212C61.9795 30.1212 62.1283 30.0742 62.2563 29.9784C62.3828 29.8794 62.484 29.7382 62.5599 29.5564H63.3933C63.3457 29.8388 63.246 30.0872 63.0957 30.303C62.9483 30.5156 62.7638 30.6796 62.542 30.7964C62.3233 30.9133 62.0792 30.9717 61.8098 30.9717Z" fill="#0F3DD1"/>
<path d="M65.4061 30.9717C65.0876 30.9717 64.8019 30.8955 64.5489 30.7445C64.2988 30.5887 64.0994 30.3777 63.9536 30.1083C63.8107 29.8405 63.7393 29.5402 63.7393 29.2059C63.7393 28.865 63.8107 28.5615 63.9536 28.297C64.0994 28.0292 64.2988 27.8198 64.5489 27.6672C64.8019 27.5114 65.0876 27.4335 65.4061 27.4335C65.7186 27.4335 66.0014 27.5114 66.2514 27.6672C66.5044 27.8198 66.7038 28.0292 66.8467 28.297C66.9896 28.5615 67.061 28.865 67.061 29.2059C67.061 29.5402 66.9896 29.8405 66.8467 30.1083C66.7038 30.3777 66.5044 30.5887 66.2514 30.7445C66.0014 30.8955 65.7186 30.9717 65.4061 30.9717ZM65.4061 30.1213C65.6442 30.1213 65.8377 30.0369 65.9895 29.8681C66.1443 29.6993 66.2217 29.4786 66.2217 29.2059C66.2217 28.93 66.1443 28.706 65.9895 28.5372C65.8377 28.3684 65.6442 28.284 65.4061 28.284C65.1635 28.284 64.9656 28.3684 64.8108 28.5372C64.659 28.706 64.5846 28.93 64.5846 29.2059C64.5846 29.4786 64.659 29.6993 64.8108 29.8681C64.9656 30.0369 65.1635 30.1213 65.4061 30.1213Z" fill="#0F3DD1"/>
<path d="M69.0667 30.9717C68.7809 30.9717 68.5279 30.9084 68.3107 30.7834C68.0919 30.6584 67.9207 30.4831 67.7987 30.2575C67.6796 30.0336 67.6201 29.769 67.6201 29.4655V27.5244H68.4535V29.3616C68.4535 29.6002 68.5071 29.7869 68.6143 29.9199C68.7244 30.0547 68.8762 30.1212 69.0667 30.1212C69.2602 30.1212 69.412 30.0547 69.5191 29.9199C69.6263 29.782 69.6798 29.5953 69.6798 29.3616V27.5244H70.5073V29.4655C70.5073 29.769 70.4478 30.0336 70.3287 30.2575C70.2097 30.4831 70.04 30.6584 69.8227 30.7834C69.6084 30.9084 69.3554 30.9717 69.0667 30.9717Z" fill="#0F3DD1"/>
<path d="M73.0247 27.4464C73.3729 27.4464 73.6497 27.5746 73.8521 27.8294C74.0545 28.081 74.1557 28.4202 74.1557 28.8487V30.8807H73.3223V28.9915C73.3223 28.49 73.1452 28.2384 72.7925 28.2384C72.5782 28.2384 72.4086 28.3196 72.2865 28.4787C72.163 28.6345 72.102 28.8471 72.102 29.1149V30.8807H71.2686V27.5243H71.84L72.0008 27.9398C72.1154 27.7889 72.2627 27.6704 72.4413 27.5827C72.6199 27.4919 72.8134 27.4464 73.0247 27.4464Z" fill="#0F3DD1"/>
<path d="M76.4258 30.0757H76.8008V30.8807H76.2115C75.8736 30.8807 75.6058 30.7752 75.4078 30.5626C75.2129 30.3467 75.1161 30.053 75.1161 29.6797V28.2514H74.5625V28.0631L75.7769 26.6479H75.9317V27.5243H76.783V28.2514H75.9495V29.5628C75.9495 29.7235 75.9882 29.8485 76.0686 29.9394C76.1519 30.0303 76.271 30.0757 76.4258 30.0757Z" fill="#0F3DD1"/>
<path d="M80.4102 27.4335C80.7197 27.4335 80.9951 27.5114 81.2376 27.6672C81.4787 27.8198 81.6692 28.0292 81.8091 28.297C81.952 28.5615 82.0234 28.865 82.0234 29.2059C82.0234 29.5435 81.952 29.847 81.8091 30.1148C81.6692 30.3842 81.4787 30.5952 81.2376 30.751C80.9951 30.9019 80.7197 30.9782 80.4102 30.9782C80.2509 30.9782 80.0977 30.9523 79.9518 30.9003C79.8089 30.8533 79.6795 30.7867 79.5649 30.6991V32.0949H78.7314V27.5244H79.2851L79.4279 27.8296C79.5544 27.7046 79.7018 27.6072 79.8685 27.5374C80.0351 27.4692 80.2152 27.4335 80.4102 27.4335ZM80.3447 30.1213C80.5025 30.1213 80.6453 30.0823 80.7733 30.0044C80.8998 29.9233 80.9995 29.8129 81.071 29.6733C81.1454 29.5354 81.1841 29.3795 81.1841 29.2059C81.1841 29.029 81.1454 28.8715 81.071 28.732C80.9995 28.594 80.8998 28.4853 80.7733 28.4074C80.6453 28.3262 80.5025 28.284 80.3447 28.284C80.181 28.284 80.0366 28.3262 79.9101 28.4074C79.7866 28.4853 79.6869 28.594 79.6125 28.732C79.5411 28.8715 79.5053 29.029 79.5053 29.2059C79.5053 29.3795 79.5411 29.5354 79.6125 29.6733C79.6869 29.8129 79.7866 29.9233 79.9101 30.0044C80.0366 30.0823 80.181 30.1213 80.3447 30.1213Z" fill="#0F3DD1"/>
<path d="M85.1276 27.5179H85.7468V30.8743H85.0919L85.0264 30.5757C84.891 30.7023 84.7377 30.7997 84.5681 30.8678C84.4014 30.936 84.2198 30.9717 84.0263 30.9717C83.7198 30.9717 83.4444 30.8954 83.1989 30.7445C82.9563 30.5887 82.7643 30.3777 82.6214 30.1083C82.4815 29.8405 82.4131 29.5369 82.4131 29.1994C82.4131 28.8618 82.4815 28.5615 82.6214 28.297C82.7643 28.0292 82.9563 27.8198 83.1989 27.6672C83.4444 27.5114 83.7198 27.4335 84.0263 27.4335C84.2243 27.4335 84.4088 27.4708 84.58 27.5439C84.7496 27.6137 84.9029 27.7127 85.0384 27.8425L85.1276 27.5179ZM84.0978 30.1147C84.2555 30.1147 84.3984 30.0758 84.5264 29.9979C84.6529 29.92 84.7526 29.8129 84.824 29.6733C84.8955 29.5353 84.9312 29.3779 84.9312 29.1994C84.9312 29.0224 84.8955 28.865 84.824 28.7254C84.7526 28.5875 84.6529 28.4787 84.5264 28.4008C84.3984 28.3197 84.2555 28.2775 84.0978 28.2775C83.9341 28.2775 83.7897 28.3197 83.6632 28.4008C83.5352 28.4787 83.437 28.5875 83.3656 28.7254C83.2941 28.865 83.2584 29.0224 83.2584 29.1994C83.2584 29.3779 83.2941 29.5353 83.3656 29.6733C83.437 29.808 83.5352 29.9167 83.6632 29.9979C83.7897 30.0758 83.9341 30.1147 84.0978 30.1147Z" fill="#0F3DD1"/>
<path d="M88.6729 27.5244H89.5599L88.2145 30.8353C88.0955 31.1372 87.972 31.3807 87.8455 31.5625C87.7219 31.7475 87.5791 31.8822 87.4168 31.965C87.2576 32.051 87.0626 32.0948 86.8334 32.0948H86.4882V31.2703H86.7799C86.9138 31.2703 87.0195 31.2525 87.0954 31.2184C87.1743 31.1875 87.2412 31.1275 87.2978 31.0366C87.3528 30.9489 87.4124 30.8224 87.4764 30.6536L87.4883 30.6276L86.1846 27.5244H87.0894L87.9109 29.5888L88.6729 27.5244Z" fill="#0F3DD1"/>
<path d="M93.4759 27.4464C93.6858 27.4464 93.8718 27.5032 94.0355 27.6152C94.1977 27.7288 94.3242 27.8846 94.4165 28.0826C94.5118 28.2823 94.5594 28.5144 94.5594 28.7773V30.8807H93.7319V28.9266C93.7319 28.4689 93.5742 28.2384 93.2616 28.2384C93.0786 28.2384 92.9357 28.3131 92.833 28.4592C92.7288 28.602 92.6782 28.8065 92.6782 29.0694V30.8807H91.8627V28.9266C91.8627 28.4689 91.7109 28.2384 91.4103 28.2384C91.2198 28.2384 91.0709 28.3131 90.9638 28.4592C90.8596 28.602 90.809 28.8065 90.809 29.0694V30.8807H89.9756V27.5243H90.559L90.7078 27.9398C90.8179 27.7937 90.9549 27.6736 91.1186 27.5827C91.2808 27.4919 91.4519 27.4464 91.6305 27.4464C91.824 27.4464 91.9996 27.4951 92.1544 27.5892C92.3121 27.685 92.4357 27.8165 92.5235 27.9853C92.6306 27.8213 92.7675 27.6915 92.9342 27.5957C93.1009 27.4967 93.281 27.4464 93.4759 27.4464Z" fill="#0F3DD1"/>
<path d="M98.304 29.1929C98.304 29.2805 98.2995 29.3682 98.2921 29.459H95.9645C96.0002 29.6846 96.0835 29.8599 96.2145 29.9849C96.3484 30.1066 96.5151 30.1667 96.7145 30.1667C96.8604 30.1667 96.9899 30.1326 97.1015 30.0628C97.2161 29.9946 97.3054 29.9005 97.3694 29.7837H98.2445C98.1284 30.1472 97.9349 30.4377 97.6611 30.6536C97.3872 30.8662 97.0717 30.9717 96.7145 30.9717C96.4124 30.9717 96.1401 30.8954 95.899 30.7445C95.6564 30.5887 95.4659 30.3777 95.3275 30.1083C95.1876 29.8405 95.1191 29.5402 95.1191 29.2059C95.1191 28.8683 95.1876 28.568 95.3275 28.3034C95.4659 28.0356 95.6564 27.823 95.899 27.6672C96.1401 27.5114 96.4124 27.4335 96.7145 27.4335C97.0315 27.4335 97.3098 27.5147 97.548 27.6737C97.7861 27.8344 97.9706 28.047 98.1016 28.3099C98.2355 28.5745 98.304 28.8683 98.304 29.1929ZM96.7145 28.2061C96.5315 28.2061 96.3752 28.2629 96.2443 28.3749C96.1163 28.4836 96.0314 28.6378 95.9883 28.8358H97.4765C97.353 28.4171 97.0985 28.2061 96.7145 28.2061Z" fill="#0F3DD1"/>
<path d="M100.654 27.4464C101.002 27.4464 101.279 27.5746 101.481 27.8294C101.683 28.081 101.785 28.4202 101.785 28.8487V30.8807H100.951V28.9915C100.951 28.49 100.774 28.2384 100.421 28.2384C100.207 28.2384 100.037 28.3196 99.9154 28.4787C99.7919 28.6345 99.7309 28.8471 99.7309 29.1149V30.8807H98.8975V27.5243H99.4689L99.6297 27.9398C99.7443 27.7889 99.8916 27.6704 100.07 27.5827C100.249 27.4919 100.442 27.4464 100.654 27.4464Z" fill="#0F3DD1"/>
<path d="M104.056 30.0757H104.431V30.8807H103.841C103.504 30.8807 103.236 30.7752 103.038 30.5626C102.843 30.3467 102.746 30.053 102.746 29.6797V28.2514H102.192V28.0631L103.407 26.6479H103.562V27.5243H104.413V28.2514H103.579V29.5628C103.579 29.7235 103.618 29.8485 103.698 29.9394C103.782 30.0303 103.901 30.0757 104.056 30.0757Z" fill="#0F3DD1"/>
<path d="M106.095 30.9717C105.836 30.9717 105.609 30.9214 105.416 30.8224C105.221 30.7234 105.068 30.5854 104.958 30.4069C104.85 30.2251 104.797 30.0157 104.797 29.7772H105.606C105.609 29.9249 105.66 30.0368 105.755 30.1147C105.851 30.1894 105.973 30.2251 106.124 30.2251C106.239 30.2251 106.34 30.1975 106.428 30.1407C106.514 30.0855 106.559 30.0011 106.559 29.8875C106.559 29.7707 106.501 29.6895 106.386 29.6408C106.27 29.5938 106.132 29.5548 105.97 29.524C105.846 29.5077 105.72 29.4785 105.589 29.4396C105.458 29.4006 105.336 29.3471 105.225 29.2773C105.118 29.2091 105.029 29.1117 104.958 28.9851C104.886 28.8601 104.85 28.6978 104.85 28.4982C104.85 28.2905 104.901 28.1071 105.005 27.9464C105.112 27.7825 105.257 27.6575 105.44 27.5698C105.626 27.4789 105.845 27.4335 106.095 27.4335C106.34 27.4335 106.554 27.4822 106.738 27.5763C106.924 27.6672 107.066 27.7971 107.166 27.9659C107.269 28.1314 107.321 28.3262 107.321 28.5501H106.529C106.529 28.4203 106.488 28.3229 106.404 28.258C106.324 28.1898 106.214 28.1541 106.071 28.1541C105.94 28.1541 105.839 28.185 105.767 28.245C105.696 28.3067 105.66 28.3846 105.66 28.4787C105.66 28.5875 105.715 28.6638 105.827 28.706C105.941 28.7498 106.08 28.7839 106.243 28.8098C106.365 28.8358 106.493 28.8666 106.624 28.9007C106.758 28.9364 106.883 28.99 106.999 29.063C107.114 29.1328 107.205 29.2302 107.273 29.3552C107.345 29.4769 107.38 29.6392 107.38 29.8421C107.38 30.0725 107.327 30.2706 107.22 30.4394C107.113 30.6081 106.961 30.7412 106.767 30.8354C106.577 30.9263 106.352 30.9717 106.095 30.9717Z" fill="#0F3DD1"/>
<path d="M42 37L42 1.35895e-06" stroke="#0F3DD1"/>
</svg>
