<svg width="109" height="38" viewBox="0 0 109 38" fill="none" xmlns="http://www.w3.org/2000/svg">
<path d="M10.5905 23.7037C9.41649 24.929 7.58921 23.1145 8.76324 21.8865C9.93595 20.6612 11.7632 22.4784 10.5905 23.7037ZM37.2468 22.0375C36.7404 24.4667 35.7212 26.8104 34.1904 28.8869C35.2149 30.0948 33.7011 31.8252 32.4051 30.9486C31.0815 32.2581 29.5992 33.3084 28.0251 34.0994C28.5577 36.3389 25.4449 37.4426 24.4689 35.3942C23.2556 35.6962 22.0041 35.8659 20.7317 35.8899C20.0745 37.5134 17.7147 37.3023 17.3303 35.608C15.6316 35.29 13.9119 34.6874 12.4112 33.8883C10.9447 35.123 8.80521 33.6772 9.38763 31.8292C7.51707 30.2351 6.0151 28.2736 4.95389 26.0648C3.03085 26.4256 2.03785 23.7411 3.74445 22.7336C3.27746 20.8923 3.10037 18.9575 3.25385 16.9986C1.25997 16.3719 1.76238 13.2252 3.92547 13.3535C4.94733 9.86461 6.94907 6.93564 9.53455 4.79237C8.41037 2.55689 11.2608 0.33344 13.075 2.13465C13.1629 2.2215 13.239 2.31504 13.3111 2.41258C16.0487 1.14719 19.1222 0.60469 22.2442 0.95344C22.8253 -0.60057 25.1196 -0.14225 25.0868 1.51465C25.9119 1.74982 26.7238 2.05047 27.5122 2.41525C28.294 1.56943 29.6412 2.33909 29.388 3.42676C29.8353 3.70469 30.2761 4.01202 30.7063 4.34073C31.7282 5.11706 32.6779 6.02435 33.503 7.00513C34.3976 6.65771 35.245 7.75207 34.6665 8.55513C35.2621 9.44905 35.7671 10.3871 36.1856 11.3572C37.677 11.1327 38.4103 13.2252 37.0789 13.9962C37.4435 15.4419 37.6246 16.9278 37.6206 18.415C39.6683 18.8934 39.3469 22.0067 37.2468 22.0375ZM32.9508 8.37474C32.2713 8.46159 31.5905 8.58185 30.9162 8.72616C30.9464 9.04418 30.9097 9.36888 30.8087 9.67354C32.3369 10.2802 33.8218 11.0458 35.2358 11.9665L35.594 11.6017C35.3631 11.0699 35.1073 10.5474 34.8279 10.0423C34.618 9.66418 34.3911 9.29138 34.151 8.9306C33.6906 9.07091 33.1554 8.83707 32.9508 8.37474ZM18.9832 16.1916C20.9888 16.9278 22.9276 17.9326 24.7483 19.2074C24.8231 19.1406 24.9057 19.0844 24.9884 19.0377C24.2945 17.0895 23.3618 15.2081 22.1852 13.4497C21.8231 13.61 21.3955 13.5739 21.061 13.3361C20.2713 13.9494 19.5131 14.6148 18.7864 15.335C18.9438 15.5956 19.0094 15.8976 18.9832 16.1916ZM26.5363 8.40547C26.5717 8.2478 26.6281 8.09013 26.7002 7.94315C24.7706 6.69112 22.7099 5.73707 20.5835 5.08099C20.1204 5.71301 19.6902 6.36241 19.2927 7.0225C19.5984 7.2403 19.8345 7.55832 19.946 7.9525C22.1524 7.81621 24.3666 7.96586 26.5363 8.40547ZM26.4733 9.03483C24.3443 8.59522 22.172 8.44556 20.0089 8.58185C19.9853 8.87716 19.8909 9.16444 19.7269 9.42233C20.2975 10.0116 20.8367 10.6209 21.343 11.2503C21.7444 11.11 22.218 11.1968 22.5367 11.5255C23.8144 10.7051 25.1524 10.0089 26.5258 9.4397C26.4969 9.30875 26.4799 9.17112 26.4733 9.03483ZM16.6364 9.03483C12.6369 9.85125 8.80259 11.6792 5.52188 14.5039C5.60059 14.695 5.6465 14.8994 5.65699 15.1039C9.21973 14.4278 12.8835 14.5213 16.4265 15.4085C16.4856 15.295 16.5616 15.1881 16.6535 15.0932C17.11 14.6188 17.8236 14.548 18.3522 14.8901C19.092 14.1565 19.8647 13.4764 20.6661 12.8537C20.4891 12.4528 20.5415 11.9665 20.834 11.615C20.3539 11.0191 19.841 10.4405 19.2993 9.88065C18.3784 10.5608 17.0116 10.1225 16.6364 9.03483ZM25.58 18.8466C25.7964 18.8226 26.0129 18.8493 26.2241 18.9201C27.3443 16.4494 28.0579 13.8345 28.353 11.1835C27.6998 11.0792 27.0715 10.6383 26.7461 10.029C25.4016 10.5848 24.0977 11.2636 22.8489 12.0707C22.9302 12.4021 22.8712 12.7602 22.6705 13.0515C23.8931 14.8767 24.8625 16.8249 25.58 18.8466ZM26.7593 19.2421C26.9075 19.3784 27.0229 19.5401 27.1043 19.7098C28.2415 19.2074 29.3461 18.6194 30.4112 17.9393C30.2826 15.6424 29.8524 13.3668 29.1152 11.1701C29.0693 11.1808 29.0234 11.1875 28.9774 11.1941C28.6718 13.9561 27.9333 16.6766 26.7593 19.2421ZM27.1043 21.0727C28.071 21.9332 28.9578 22.8539 29.7671 23.8213C29.8655 23.7772 29.9704 23.7545 30.0793 23.7478C30.3679 22.0642 30.486 20.3592 30.4401 18.6622C29.4116 19.2982 28.3504 19.8541 27.2551 20.3298C27.2656 20.5837 27.2158 20.8389 27.1043 21.0727ZM31.0054 17.5505C32.0443 16.845 33.04 16.0539 33.9792 15.1734C32.8983 13.5432 31.6141 12.0106 30.1646 10.6543C30.019 10.7813 29.8655 10.8895 29.7002 10.9723C30.4138 13.1089 30.8506 15.3177 31.0054 17.5505ZM34.437 14.7351C34.7649 14.4144 35.0876 14.083 35.3998 13.7383C35.1139 13.4336 34.9499 13.0074 35.0115 12.5624C33.6381 11.6591 32.1991 10.9055 30.7129 10.3096C32.123 11.6525 33.3745 13.149 34.437 14.7351ZM28.8135 4.16969C28.9447 5.01418 29.0365 5.86 29.0863 6.70715C29.8222 6.8381 30.4965 7.39396 30.7719 8.11418C31.4724 7.96319 32.1755 7.83892 32.8826 7.7494C32.9049 7.63181 32.9508 7.51422 33.0164 7.41C31.8961 6.06444 30.5621 4.90327 29.0824 3.97594C29.0011 4.05612 28.9119 4.12293 28.8135 4.16969ZM24.8165 2.35245C26.0168 3.75547 27.0426 5.2547 27.8966 6.82875C28.0802 6.75392 28.2717 6.70715 28.4685 6.68711C28.4186 5.88004 28.3307 5.08099 28.2048 4.2806C27.5909 4.21379 27.141 3.5978 27.242 2.9818C26.51 2.64374 25.744 2.35913 24.949 2.12797C24.9097 2.20547 24.8664 2.28163 24.8165 2.35245ZM20.9888 4.54784C23.0955 5.22129 25.1353 6.17801 27.0518 7.42069L27.3614 7.1334C26.5297 5.59944 25.5301 4.1403 24.3666 2.77736C23.7986 3.11543 23.1178 2.99517 22.6639 2.59965L20.9888 4.54784ZM13.6102 2.9778C13.6561 3.10607 13.6889 3.23568 13.7125 3.3693C15.9464 3.40004 18.1817 3.72874 20.3513 4.3581L22.2796 2.09456C22.2075 1.93689 22.1655 1.76585 22.1524 1.58279C19.2429 1.27413 16.3045 1.74314 13.6102 2.9778ZM13.5315 4.73224C14.7829 5.40836 15.9923 6.19539 17.1428 7.09866C17.6032 6.6978 18.2013 6.60427 18.73 6.75392C19.1091 6.12189 19.5131 5.50189 19.9499 4.89659C17.9154 4.32737 15.8257 4.02939 13.7322 3.99866C13.7086 4.24987 13.6404 4.4984 13.5315 4.73224ZM4.54987 13.5031L5.18738 13.9694C8.54286 11.0966 12.4598 9.24194 16.538 8.41215C16.5446 8.12754 16.6167 7.84293 16.7558 7.58771C15.6211 6.6978 14.4287 5.92146 13.1891 5.26138C12.3286 6.25551 10.807 6.28625 9.90578 5.32551C7.37277 7.44741 5.45367 10.4365 4.54987 13.5031ZM16.5354 16.8877C16.3478 16.6298 16.2586 16.3225 16.2652 16.0138C12.7523 15.1373 9.11085 15.0598 5.58091 15.756C5.34742 16.5563 4.62201 17.0494 3.86906 17.0788C3.72739 18.9375 3.89268 20.7721 4.32949 22.5185C6.23154 22.1845 7.21143 24.8221 5.535 25.8403C6.53456 27.9061 7.93814 29.7461 9.67622 31.2533C9.93857 30.8885 10.3308 30.6133 10.8135 30.513C11.3592 25.6359 13.2652 20.8817 16.5354 16.8877ZM12.9819 31.7557C17.758 29.7942 22.0304 26.1543 24.7969 21.6152C24.2223 21.1569 24.0583 20.3458 24.3666 19.7071C22.6023 18.4751 20.7252 17.5037 18.7825 16.7915C18.4112 17.4035 17.6163 17.6146 17.005 17.2966C13.8371 21.1663 11.9836 25.7668 11.434 30.4903C12.1213 30.5772 12.7497 31.0863 12.9819 31.7557ZM25.8332 21.9399C25.6718 21.9493 25.5105 21.9359 25.3557 21.8932C22.4974 26.61 18.0597 30.3767 13.0947 32.3877C13.0973 32.7659 12.9989 33.108 12.8244 33.3952C14.1952 34.1128 15.7536 34.658 17.2949 34.9586C17.5809 32.6857 20.939 32.9636 20.8603 35.2566C22.0264 35.2232 23.1768 35.0668 24.2945 34.7916C24.1856 33.7841 24.8834 32.7498 25.9906 32.6363C26.6832 29.1007 26.6281 25.4515 25.8332 21.9399ZM26.7265 32.7098C28.0736 30.4997 29.0535 28.1266 29.6714 25.6786C29.165 25.4007 28.9945 24.7179 29.2936 24.2302C28.5105 23.2922 27.6565 22.4049 26.7238 21.5751C26.6307 21.6553 26.5323 21.7221 26.4274 21.7796C27.242 25.3579 27.3076 29.0806 26.615 32.683C26.6504 32.6857 26.6897 32.6964 26.7265 32.7098ZM32.2909 28.7252C31.7544 27.7017 31.1471 26.7035 30.4663 25.7495C30.4046 25.7695 30.3417 25.7869 30.2787 25.7935C29.6543 28.2976 28.6561 30.7282 27.2853 32.9904L27.7654 33.5061C29.3093 32.7258 30.73 31.7049 31.9722 30.477C31.6561 29.9077 31.7741 29.1581 32.2909 28.7252ZM36.6119 21.9292C35.3828 21.4816 35.0115 19.7806 36.0045 18.8533C35.5284 17.7816 34.9656 16.7274 34.3255 15.7092C33.2892 16.6672 32.1926 17.5238 31.0448 18.2801C31.1235 20.1561 31.0028 22.0401 30.6801 23.9015C31.176 24.2128 31.3084 24.909 30.9661 25.3807C31.6666 26.3654 32.2936 27.3903 32.8432 28.4473C33.116 28.3804 33.4046 28.4045 33.667 28.5114C35.0509 26.6327 36.1029 24.3237 36.6119 21.9292ZM36.987 18.3843C36.987 16.9479 36.81 15.5395 36.4676 14.1792C36.2774 14.1899 36.0898 14.1592 35.9219 14.0924C35.5546 14.5013 35.1729 14.8928 34.7846 15.2709C35.4484 16.3185 36.0334 17.4035 36.5306 18.5112C36.6775 18.4484 36.8323 18.4043 36.987 18.3843ZM33.8716 23.1519C33.0203 22.91 32.6622 24.2329 33.5135 24.4734C34.3609 24.7152 34.723 23.3924 33.8716 23.1519ZM21.0439 22.3555C22.1419 22.5319 22.4082 20.8282 21.3102 20.6505C20.2123 20.4741 19.946 22.1778 21.0439 22.3555ZM21.1948 29.5389C19.8056 29.1474 19.2166 31.3067 20.6097 31.6983C22.0002 32.0898 22.5852 29.9305 21.1948 29.5389ZM14.6688 11.1701C13.4987 10.8387 13.0015 12.66 14.1756 12.9913C15.3456 13.3187 15.8389 11.4988 14.6688 11.1701Z" fill="#0F3DD1"/>
<path transform="translate(0, 7.3)" d="M51.3086 15.2565L50.7324 13.7588H47.4474L46.8831 15.2565H45L48.2256 7.35817H49.9067L53.2392 15.2565H51.3086ZM49.081 9.44807L48.0117 12.2669H50.1621L49.081 9.44807Z" fill="#0F3DD1"/>
<path transform="translate(0, 7.3)" d="M56.8214 13.7475H59.2154V15.2566H53.7266V14.9092C54.3711 14.1917 54.9116 13.5866 55.3483 13.0926C55.7834 12.5958 56.1339 12.1815 56.3997 11.8512C56.664 11.5209 56.869 11.2462 57.0115 11.0255C57.1541 10.802 57.2491 10.6098 57.2967 10.4504C57.3442 10.2881 57.368 10.13 57.368 9.97772C57.368 9.71577 57.2848 9.50507 57.1185 9.34562C56.9521 9.18618 56.7353 9.10645 56.471 9.10645C56.1977 9.10645 55.975 9.18902 55.8057 9.35132C55.6349 9.51504 55.5502 9.73143 55.5502 10.0005V10.1372H53.8691V9.97772C53.8691 9.51931 53.9731 9.11072 54.184 8.75339C54.3978 8.39748 54.6963 8.1156 55.0809 7.9106C55.4641 7.70275 55.92 7.5974 56.4472 7.5974C56.9581 7.5974 57.4095 7.6999 57.8016 7.9049C58.1937 8.10706 58.4996 8.38325 58.7223 8.73631C58.9481 9.08937 59.0609 9.49653 59.0609 9.95494C59.0609 10.187 59.0283 10.4205 58.9659 10.6554C58.902 10.8874 58.7892 11.148 58.6273 11.4355C58.4684 11.7203 58.2412 12.0491 57.9442 12.4207C57.6501 12.7937 57.2759 13.235 56.8214 13.7475Z" fill="#0F3DD1"/>
<path transform="translate(0, 7.3)" d="M66.2031 15.2565L65.6269 13.7588H62.3419L61.7776 15.2565H59.8945L63.1201 7.35817H64.8012L68.1337 15.2565H66.2031ZM63.9755 9.44807L62.9063 12.2669H65.0566L63.9755 9.44807Z" fill="#0F3DD1"/>
<path transform="translate(0, 7.3)" d="M74.4326 11.128H78.8225C78.8136 11.7516 78.7066 12.3239 78.5017 12.8478C78.2997 13.3717 78.0101 13.8258 77.6344 14.2088C77.2617 14.5932 76.8176 14.8921 76.3038 15.1085C75.7929 15.3207 75.2256 15.4274 74.6049 15.4274C74.0019 15.4274 73.4421 15.3263 72.9238 15.1256C72.404 14.9206 71.9511 14.6345 71.5635 14.2657C71.1744 13.8984 70.8744 13.4614 70.6605 12.956C70.4497 12.452 70.3457 11.9068 70.3457 11.3217C70.3457 10.7266 70.4482 10.1799 70.6546 9.68162C70.864 9.1805 71.1595 8.74487 71.5397 8.37187C71.9199 8.0003 72.3684 7.7113 72.8881 7.5063C73.4064 7.29845 73.9663 7.1931 74.5692 7.1931C75.2539 7.1931 75.885 7.32123 76.4642 7.57464C77.0463 7.82947 77.5334 8.18253 77.9255 8.63382C78.3176 9.08654 78.576 9.61044 78.7037 10.2055H76.8681C76.6929 9.777 76.4018 9.4396 75.9949 9.19189C75.5865 8.94133 75.1232 8.81605 74.6049 8.81605C74.1208 8.81605 73.6931 8.92424 73.3218 9.14064C72.9535 9.35418 72.6639 9.64603 72.4545 10.0176C72.2481 10.3906 72.1456 10.8248 72.1456 11.3217C72.1456 11.8085 72.2466 12.2385 72.4486 12.6143C72.6535 12.9873 72.9416 13.2777 73.3099 13.4856C73.6812 13.6949 74.1133 13.7988 74.6049 13.7988C75.1395 13.7988 75.6177 13.6763 76.0424 13.4286C76.4657 13.1823 76.7523 12.8563 76.9038 12.4492H74.4326V11.128Z" fill="#0F3DD1"/>
<path transform="translate(0, 7.3)" d="M80.0801 15.2566V6.9653H81.7968V15.2566H80.0801Z" fill="#0F3DD1"/>
<path transform="translate(0, 7.3)" d="M86.4677 15.4274C85.8054 15.4274 85.2158 15.2865 84.6975 15.006C84.1822 14.7213 83.7738 14.3383 83.4738 13.8557C83.1768 13.3702 83.0283 12.8221 83.0283 12.21C83.0283 11.595 83.1768 11.0454 83.4738 10.5586C83.7738 10.0731 84.1822 9.69156 84.6975 9.41395C85.2158 9.13776 85.8054 8.99825 86.4677 8.99825C87.1167 8.99825 87.7004 9.13776 88.2201 9.41395C88.7384 9.69156 89.1468 10.0731 89.4438 10.5586C89.7408 11.0454 89.8893 11.595 89.8893 12.21C89.8893 12.8221 89.7408 13.3702 89.4438 13.8557C89.1468 14.3383 88.7384 14.7213 88.2201 15.006C87.7004 15.2865 87.1167 15.4274 86.4677 15.4274ZM86.4677 13.8785C86.9623 13.8785 87.3662 13.7247 87.6796 13.4172C87.9914 13.1097 88.1488 12.7082 88.1488 12.21C88.1488 11.7131 87.9914 11.3102 87.6796 11.0027C87.3662 10.6952 86.9623 10.5415 86.4677 10.5415C85.9643 10.5415 85.5559 10.6952 85.244 11.0027C84.9307 11.3102 84.7748 11.7131 84.7748 12.21C84.7748 12.7082 84.9307 13.1097 85.244 13.4172C85.5559 13.7247 85.9643 13.8785 86.4677 13.8785Z" fill="#0F3DD1"/>
<path transform="translate(0, 7.3)" d="M94.5852 8.99826C95.2386 8.99826 95.8148 9.13777 96.3138 9.41396C96.8157 9.69157 97.2108 10.0731 97.4959 10.5586C97.784 11.0454 97.9295 11.595 97.9295 12.21C97.9295 12.8293 97.784 13.3816 97.4959 13.8671C97.2108 14.3497 96.8157 14.7312 96.3138 15.0117C95.8148 15.2879 95.2386 15.4274 94.5852 15.4274C94.2005 15.4274 93.8397 15.3676 93.504 15.2509C93.1669 15.1341 92.864 14.9662 92.5952 14.7498L92.3991 15.2566H91.1279V6.9653H92.8447V9.49368C93.0853 9.33424 93.3526 9.21323 93.6466 9.12923C93.9436 9.04239 94.2555 8.99826 94.5852 8.99826ZM94.4426 13.8671C94.7782 13.8671 95.0752 13.7973 95.3336 13.6564C95.595 13.5126 95.8 13.3147 95.9514 13.0642C96.1014 12.8108 96.1772 12.526 96.1772 12.21C96.1772 11.8954 96.1014 11.6121 95.9514 11.3615C95.8 11.1081 95.595 10.9088 95.3336 10.7636C95.0752 10.6155 94.7782 10.5415 94.4426 10.5415C94.1129 10.5415 93.8159 10.6155 93.5516 10.7636C93.2902 10.9088 93.0838 11.1081 92.9338 11.3615C92.7868 11.6121 92.714 11.8954 92.714 12.21C92.714 12.526 92.7868 12.8079 92.9338 13.0585C93.0838 13.3062 93.2902 13.5026 93.5516 13.6507C93.8159 13.7959 94.1129 13.8671 94.4426 13.8671Z" fill="#0F3DD1"/>
<path transform="translate(0, 7.3)" d="M104.351 9.152H105.634V15.2452H104.279L104.143 14.7042C103.865 14.9291 103.552 15.1057 103.204 15.2338C102.855 15.3619 102.481 15.4274 102.082 15.4274C101.443 15.4274 100.873 15.2865 100.371 15.006C99.8717 14.7213 99.4752 14.3383 99.1827 13.8557C98.8931 13.3702 98.749 12.8179 98.749 12.1986C98.749 11.5921 98.8931 11.0454 99.1827 10.5586C99.4752 10.0731 99.8717 9.69156 100.371 9.41395C100.873 9.13776 101.443 8.99825 102.082 8.99825C102.488 8.99825 102.869 9.06516 103.222 9.19755C103.574 9.32711 103.889 9.50791 104.167 9.73854L104.351 9.152ZM102.224 13.8671C102.552 13.8671 102.848 13.7973 103.109 13.6564C103.374 13.5126 103.58 13.3147 103.727 13.0642C103.877 12.8107 103.953 12.5218 103.953 12.1986C103.953 11.884 103.877 11.6007 103.727 11.3501C103.58 11.0967 103.374 10.8974 103.109 10.7522C102.848 10.6041 102.552 10.5301 102.224 10.5301C101.887 10.5301 101.588 10.6041 101.327 10.7522C101.069 10.8974 100.865 11.0967 100.715 11.3501C100.568 11.6007 100.495 11.884 100.495 12.1986C100.495 12.5218 100.568 12.8079 100.715 13.0585C100.865 13.3062 101.069 13.5026 101.327 13.6507C101.588 13.7959 101.887 13.8671 102.224 13.8671Z" fill="#0F3DD1"/>
<path transform="translate(0, 7.3)" d="M107.283 15.2566V6.9653H109V15.2566H107.283Z" fill="#0F3DD1"/>
<path d="M42 37L42 1.35895e-06" stroke="#0F3DD1"/>
</svg>