<svg width="1447" height="200" viewBox="0 0 1447 200" fill="none" xmlns="http://www.w3.org/2000/svg">
<path d="M142.631 195.549L129.604 160.227H55.3334L42.5745 195.549H0L72.9273 9.2688H110.936L186.28 195.549H142.631ZM92.2672 58.5585L68.0924 125.039H116.711L92.2672 58.5585Z" fill="url(#paint0_linear_2001_223)"/>
<path d="M267.289 159.957H321.414V195.548H197.316V187.355C211.888 170.433 224.11 156.163 233.982 144.512C243.819 132.794 251.743 123.024 257.753 115.234C263.73 107.444 268.363 100.964 271.587 95.7598C274.81 90.4883 276.959 85.9555 278.033 82.195C279.108 78.3673 279.645 74.6404 279.645 71.0477C279.645 64.8697 277.765 59.9005 274.004 56.1399C270.244 52.3794 265.342 50.4991 259.365 50.4991C253.187 50.4991 248.151 52.4466 244.323 56.2742C240.462 60.1355 238.548 65.2391 238.548 71.5849V74.8083H200.54V71.0477C200.54 60.2362 202.89 50.5999 207.658 42.1723C212.493 33.7782 219.242 27.1302 227.938 22.2952C236.6 17.3931 246.908 14.9084 258.828 14.9084C270.378 14.9084 280.585 17.3259 289.449 22.1609C298.313 26.9287 305.23 33.4425 310.266 41.7693C315.37 50.0962 317.922 59.699 317.922 70.5105C317.922 75.9834 317.183 81.4899 315.773 87.03C314.329 92.5029 311.777 98.6473 308.118 105.43C304.525 112.145 299.388 119.901 292.673 128.664C286.025 137.461 277.563 147.87 267.289 159.957Z" fill="url(#paint1_linear_2001_223)"/>
<path d="M479.416 195.549L466.388 160.227H392.118L379.359 195.549H336.784L409.712 9.2688H447.72L523.064 195.549H479.416ZM429.051 58.5585L404.877 125.039H453.495L429.051 58.5585Z" fill="url(#paint2_linear_2001_223)"/>
<path d="M665.46 98.1767H764.711C764.51 112.883 762.092 126.381 757.459 138.737C752.892 151.093 746.345 161.803 737.85 170.835C729.423 179.901 719.383 186.952 707.766 192.056C696.216 197.058 683.39 199.577 669.355 199.577C655.723 199.577 643.065 197.193 631.347 192.458C619.595 187.623 609.354 180.875 600.591 172.178C591.794 163.516 585.012 153.208 580.177 141.288C575.409 129.403 573.059 116.543 573.059 102.743C573.059 88.7082 575.375 75.815 580.042 64.0634C584.777 52.2446 591.458 41.9703 600.054 33.1733C608.649 24.41 618.789 17.594 630.541 12.7591C642.259 7.85694 654.917 5.37231 668.549 5.37231C684.028 5.37231 698.298 8.39416 711.392 14.3707C724.554 20.3808 735.567 28.7077 744.431 39.3513C753.295 50.0285 759.137 62.3846 762.025 76.4194H720.525C716.563 66.313 709.982 58.3554 700.782 52.5132C691.549 46.6038 681.073 43.6491 669.355 43.6491C658.409 43.6491 648.739 46.2009 640.345 51.3044C632.018 56.3409 625.471 63.224 620.737 71.9873C616.07 80.7843 613.753 91.025 613.753 102.743C613.753 114.226 616.036 124.366 620.602 133.23C625.236 142.027 631.75 148.877 640.077 153.779C648.471 158.714 658.241 161.166 669.355 161.166C681.442 161.166 692.254 158.278 701.857 152.436C711.426 146.627 717.906 138.938 721.331 129.335H665.46V98.1767Z" fill="url(#paint3_linear_2001_223)"/>
<path d="M793.14 195.547V0H831.954V195.547H793.14Z" fill="url(#paint4_linear_2001_223)"/>
<path d="M937.582 199.577C922.607 199.577 909.277 196.253 897.559 189.639C885.908 182.923 876.675 173.891 869.892 162.509C863.177 151.06 859.819 138.133 859.819 123.695C859.819 109.19 863.177 96.2297 869.892 84.7467C876.675 73.2972 885.908 64.2988 897.559 57.7515C909.277 51.2377 922.607 47.9473 937.582 47.9473C952.254 47.9473 965.45 51.2377 977.201 57.7515C988.92 64.2988 998.153 73.2972 1004.87 84.7467C1011.58 96.2297 1014.94 109.19 1014.94 123.695C1014.94 138.133 1011.58 151.06 1004.87 162.509C998.153 173.891 988.92 182.923 977.201 189.639C965.45 196.253 952.254 199.577 937.582 199.577ZM937.582 163.046C948.762 163.046 957.895 159.42 964.98 152.168C972.031 144.915 975.59 135.447 975.59 123.695C975.59 111.977 972.031 102.475 964.98 95.2224C957.895 87.97 948.762 84.3438 937.582 84.3438C926.199 84.3438 916.966 87.97 909.915 95.2224C902.83 102.475 899.305 111.977 899.305 123.695C899.305 135.447 902.83 144.915 909.915 152.168C916.966 159.42 926.199 163.046 937.582 163.046Z" fill="url(#paint5_linear_2001_223)"/>
<path d="M1121.1 47.9467C1135.88 47.9467 1148.9 51.2372 1160.18 57.7509C1171.53 64.2983 1180.46 73.2967 1186.91 84.7461C1193.42 96.2292 1196.72 109.19 1196.72 123.694C1196.72 138.3 1193.42 151.328 1186.91 162.777C1180.46 174.159 1171.53 183.158 1160.18 189.772C1148.9 196.286 1135.88 199.576 1121.1 199.576C1112.41 199.576 1104.25 198.166 1096.66 195.413C1089.04 192.66 1082.19 188.698 1076.11 183.594L1071.68 195.547H1042.94V0H1081.75V59.6312C1087.19 55.8707 1093.23 53.0167 1099.88 51.0357C1106.6 48.9876 1113.65 47.9467 1121.1 47.9467ZM1117.88 162.777C1125.47 162.777 1132.18 161.132 1138.02 157.808C1143.93 154.417 1148.57 149.749 1151.99 143.84C1155.38 137.864 1157.1 131.148 1157.1 123.694C1157.1 116.274 1155.38 109.592 1151.99 103.683C1148.57 97.7065 1143.93 93.0058 1138.02 89.5811C1132.18 86.0892 1125.47 84.3432 1117.88 84.3432C1110.42 84.3432 1103.71 86.0892 1097.73 89.5811C1091.82 93.0058 1087.16 97.7065 1083.77 103.683C1080.44 109.592 1078.8 116.274 1078.8 123.694C1078.8 131.148 1080.44 137.796 1083.77 143.706C1087.16 149.548 1091.82 154.182 1097.73 157.673C1103.71 161.098 1110.42 162.777 1117.88 162.777Z" fill="url(#paint6_linear_2001_223)"/>
<path d="M1341.88 51.5737H1370.89V195.28H1340.27L1337.18 182.521C1330.9 187.826 1323.81 191.989 1315.96 195.011C1308.07 198.033 1299.61 199.577 1290.57 199.577C1276.14 199.577 1263.24 196.253 1251.89 189.639C1240.61 182.924 1231.65 173.892 1225.03 162.509C1218.49 151.06 1215.23 138.032 1215.23 123.427C1215.23 109.123 1218.49 96.23 1225.03 84.7469C1231.65 73.2975 1240.61 64.2991 1251.89 57.7517C1263.24 51.238 1276.14 47.9475 1290.57 47.9475C1299.77 47.9475 1308.37 49.5256 1316.36 52.6482C1324.32 55.7036 1331.44 59.9678 1337.71 65.4071L1341.88 51.5737ZM1293.8 162.778C1301.22 162.778 1307.9 161.133 1313.81 157.809C1319.78 154.417 1324.45 149.75 1327.78 143.841C1331.17 137.864 1332.88 131.048 1332.88 123.427C1332.88 116.006 1331.17 109.325 1327.78 103.415C1324.45 97.4387 1319.78 92.7381 1313.81 89.3133C1307.9 85.8214 1301.22 84.0754 1293.8 84.0754C1286.17 84.0754 1279.43 85.8214 1273.52 89.3133C1267.67 92.7381 1263.07 97.4387 1259.68 103.415C1256.36 109.325 1254.71 116.006 1254.71 123.427C1254.71 131.048 1256.36 137.797 1259.68 143.707C1263.07 149.549 1267.67 154.182 1273.52 157.674C1279.43 161.099 1286.17 162.778 1293.8 162.778Z" fill="url(#paint7_linear_2001_223)"/>
<path d="M1408.19 195.548V0.000244141H1447V195.548H1408.19Z" fill="url(#paint8_linear_2001_223)"/>
<defs>
<linearGradient id="paint0_linear_2001_223" x1="93.7195" y1="20.0026" x2="93.7195" y2="271.08" gradientUnits="userSpaceOnUse">
<stop stop-color="#DAE3FF"/>
<stop offset="1" stop-color="white" stop-opacity="0"/>
</linearGradient>
<linearGradient id="paint1_linear_2001_223" x1="259.751" y1="25.3172" x2="259.751" y2="268.792" gradientUnits="userSpaceOnUse">
<stop stop-color="#DAE3FF"/>
<stop offset="1" stop-color="white" stop-opacity="0"/>
</linearGradient>
<linearGradient id="paint2_linear_2001_223" x1="430.504" y1="20.0026" x2="430.504" y2="271.08" gradientUnits="userSpaceOnUse">
<stop stop-color="#DAE3FF"/>
<stop offset="1" stop-color="white" stop-opacity="0"/>
</linearGradient>
<linearGradient id="paint3_linear_2001_223" x1="669.481" y1="16.5627" x2="669.481" y2="278.321" gradientUnits="userSpaceOnUse">
<stop stop-color="#DAE3FF"/>
<stop offset="1" stop-color="white" stop-opacity="0"/>
</linearGradient>
<linearGradient id="paint4_linear_2001_223" x1="812.667" y1="11.2678" x2="812.667" y2="274.836" gradientUnits="userSpaceOnUse">
<stop stop-color="#DAE3FF"/>
<stop offset="1" stop-color="white" stop-opacity="0"/>
</linearGradient>
<linearGradient id="paint5_linear_2001_223" x1="937.863" y1="56.6844" x2="937.863" y2="261.058" gradientUnits="userSpaceOnUse">
<stop stop-color="#DAE3FF"/>
<stop offset="1" stop-color="white" stop-opacity="0"/>
</linearGradient>
<linearGradient id="paint6_linear_2001_223" x1="1120.3" y1="11.4999" x2="1120.3" y2="280.499" gradientUnits="userSpaceOnUse">
<stop stop-color="#DAE3FF"/>
<stop offset="1" stop-color="white" stop-opacity="0"/>
</linearGradient>
<linearGradient id="paint7_linear_2001_223" x1="1293.54" y1="56.6847" x2="1293.54" y2="261.059" gradientUnits="userSpaceOnUse">
<stop stop-color="#DAE3FF"/>
<stop offset="1" stop-color="white" stop-opacity="0"/>
</linearGradient>
<linearGradient id="paint8_linear_2001_223" x1="1427.71" y1="11.268" x2="1427.71" y2="274.836" gradientUnits="userSpaceOnUse">
<stop stop-color="#DAE3FF"/>
<stop offset="1" stop-color="white" stop-opacity="0"/>
</linearGradient>
</defs>
</svg>
